#!OML:ASF H:\MichaelJackson\Top Level 1\Subject 1\Session 1\male.ASF
:FULLY-SPECIFIED
:DEGREES
1070
root -6.31474 17.8883 27.6334 -177.293 174.326 175.9
lowerback -0.443346 -2.22145 -1.78863
upperback -1.86785 -2.95786 1.19838
thorax -1.51286 -1.44427 2.25231
lowerneck -10.4349 -3.03024 0.859286
upperneck 10.4503 -4.37936 1.28982
head 4.858 -2.03012 -0.0541079
rclavicle 2.31087e-014 -4.77083e-015
rhumerus -4.05366 44.2373 2.61315
rradius 78.3347
rwrist -26.8495
rhand 27.1038 -10.6569
rfingers 7.12502
rthumb 51.0853 -391.291
lclavicle 2.31087e-014 -4.77083e-015
lhumerus 4.02953 -14.2981 3.29343
lradius 73.5757
lwrist 45.3307
lhand -10.2118 14.04
lfingers 7.12502
lthumb 15.7797 43.4168
rfemur -25.4645 22.7574 12.592
rtibia 53.0884
rfoot 46.0831 3.59646
rtoes 40.6093
lfemur -32.5379 -29.5806 -2.22898
ltibia 55.633
lfoot 52.8945 -20.8778
ltoes 38.8698
1071
root -6.34082 17.8487 27.6384 -177.256 173.528 175.66
lowerback -0.762082 -2.39194 -1.45685
upperback -1.97811 -3.1787 1.28909
thorax -1.44853 -1.55863 2.14906
lowerneck -10.3755 -3.13647 0.776535
upperneck 10.485 -4.51416 1.32395
head 4.86176 -2.09727 -0.0393201
rclavicle 1.78906e-014 7.95139e-016
rhumerus -2.0482 41.2164 5.35061
rradius 74.067
rwrist -26.7813
rhand 23.3988 -12.3045
rfingers 7.12502
rthumb 47.6872 -394.662
lclavicle 1.78906e-014 7.95139e-016
lhumerus 6.95752 -10.841 2.16204
lradius 67.7882
lwrist 43.535
lhand -15.3792 14.3919
lfingers 7.12502
lthumb 10.799 44.0943
rfemur -24.8167 23.2923 12.9136
rtibia 52.6344
rfoot 45.1884 4.21424
rtoes 39.8553
lfemur -33.2294 -30.1954 -1.53233
ltibia 56.0571
lfoot 52.8638 -20.9883
ltoes 38.9543
1072
root -6.37071 17.8158 27.6369 -177.387 172.882 175.478
lowerback -0.81106 -2.52188 -1.30309
upperback -2.03792 -3.34998 1.37699
thorax -1.47787 -1.64507 2.15281
lowerneck -10.3383 -3.22941 0.719532
upperneck 10.5088 -4.63874 1.38674
head 4.86615 -2.1565 -0.0193669
rclavicle 5.22307e-014 3.97569e-016
rhumerus -0.293969 37.8389 7.26155
rradius 69.3895
rwrist -25.459
rhand 16.3906 -13.7952
rfingers 7.12502
rthumb 41.1589 -398.661
lclavicle 5.22307e-014 3.97569e-016
lhumerus 9.63418 -7.32042 1.49389
lradius 62.3123
lwrist 41.0407
lhand -18.9196 14.9342
lfingers 7.12502
lthumb 7.38275 44.7854
rfemur -24.0336 23.3999 13.3952
rtibia 52.3397
rfoot 44.1415 4.46681
rtoes 39.0586
lfemur -33.5152 -30.2184 -1.25424
ltibia 56.6178
lfoot 52.4169 -20.7512
ltoes 38.7528
1073
root -6.40365 17.795 27.6308 -177.669 172.433 175.396
lowerback -0.605514 -2.61341 -1.36272
upperback -2.04689 -3.4731 1.45585
thorax -1.58836 -1.70386 2.27771
lowerneck -10.2487 -3.28386 0.632492
upperneck 10.4679 -4.71583 1.53914
head 4.84478 -2.18902 0.0380519
rclavicle 1.60022e-014 1.23246e-014
rhumerus 1.29379 33.9984 8.35404
rradius 64.5304
rwrist -22.8593
rhand 6.85723 -15.6822
rfingers 7.12502
rthumb 32.1398 -402.86
lclavicle 1.60022e-014 1.23246e-014
lhumerus 11.8816 -3.77065 1.246
lradius 57.5402
lwrist 37.8596
lhand -20.7437 15.2806
lfingers 7.12502
lthumb 5.62185 45.1861
rfemur -23.1546 23.1641 13.9358
rtibia 52.151
rfoot 43.0866 4.5969
rtoes 37.9584
lfemur -33.369 -29.7706 -1.40092
ltibia 57.1547
lfoot 51.8077 -20.0127
ltoes 38.4635
1074
root -6.43815 17.7818 27.6219 -178.049 172.207 175.447
lowerback -0.203874 -2.66896 -1.64387
upperback -2.01281 -3.55262 1.52074
thorax -1.75403 -1.73702 2.52132
lowerneck -10.2061 -3.29717 0.551183
upperneck 10.4522 -4.74032 1.6978
head 4.83895 -2.1945 0.0991085
rclavicle -1.40889e-014 -2.38542e-015
rhumerus 2.74122 29.5268 8.62502
rradius 59.7926
rwrist -19.1278
rhand -3.8843 -18.7995
rfingers 7.12502
rthumb 21.8651 -407.584
lclavicle -1.40889e-014 -2.38542e-015
lhumerus 13.5808 -0.278594 1.33452
lradius 53.7915
lwrist 34.1812
lhand -21.0286 15.1167
lfingers 7.12502
lthumb 5.34673 45.0293
rfemur -22.2529 22.6865 14.3979
rtibia 52.0581
rfoot 42.0357 4.52102
rtoes 36.9005
lfemur -32.8374 -28.9717 -1.90936
ltibia 57.5718
lfoot 51.1294 -18.9634
ltoes 38.1988
1075
root -6.47194 17.773 27.6117 -178.461 172.196 175.632
lowerback 0.306476 -2.68464 -2.1041
upperback -1.9476 -3.58579 1.56828
thorax -1.9412 -1.74369 2.85239
lowerneck -10.2356 -3.2792 0.477852
upperneck 10.4763 -4.72178 1.82452
head 4.85623 -2.17954 0.150419
rclavicle -3.803e-014 -1.39149e-014
rhumerus 4.01716 24.2851 8.08596
rradius 55.5236
rwrist -14.6255
rhand -14.4445 -23.9958
rfingers 7.12502
rthumb 11.7005 -413.649
lclavicle -3.803e-014 -1.39149e-014
lhumerus 14.6792 2.94248 1.58462
lradius 51.2981
lwrist 30.4612
lhand -20.0935 14.3331
lfingers 7.12502
lthumb 6.24953 44.2209
rfemur -21.4089 22.0675 14.6891
rtibia 52.0534
rfoot 40.9971 4.27931
rtoes 36.2014
lfemur -32.0338 -28.001 -2.64739
ltibia 57.8405
lfoot 50.3561 -17.8951
ltoes 37.9503
1076
root -6.50295 17.7661 27.6018 -178.837 172.352 175.928
lowerback 0.821893 -2.66007 -2.67413
upperback -1.86828 -3.57267 1.60104
thorax -2.11429 -1.72517 3.22952
lowerneck -10.3353 -3.24749 0.409708
upperneck 10.5369 -4.68027 1.89573
head 4.89473 -2.15561 0.183897
rclavicle -9.67833e-015 1.98785e-015
rhumerus 5.10812 18.2814 6.82912
rradius 52.062
rwrist -10.0147
rhand -23.7932 -31.6569
rfingers 7.12502
rthumb 2.67708 -421.62
lclavicle -9.67833e-015 1.98785e-015
lhumerus 15.2211 5.6697 1.84929
lradius 50.0828
lwrist 27.2402
lhand -18.2721 13.0529
lfingers 7.12502
lthumb 8.00774 42.8812
rfemur -20.714 21.3769 14.7729
rtibia 52.1375
rfoot 39.9768 4.11621
rtoes 35.7134
lfemur -31.1054 -27.0511 -3.4628
ltibia 57.9679
lfoot 49.4633 -16.9923
ltoes 37.6935
1077
root -6.52931 17.7591 27.5931 -179.109 172.611 176.282
lowerback 1.24272 -2.59497 -3.24829
upperback -1.79936 -3.50915 1.62015
thorax -2.25047 -1.68143 3.5896
lowerneck -10.4089 -3.21929 0.317194
upperneck 10.5598 -4.63566 1.94612
head 4.91712 -2.1332 0.216016
rclavicle -2.80783e-015 -1.15295e-014
rhumerus 6.00747 11.7859 5.05835
rradius 49.668
rwrist -6.09937
rhand -31.4845 -41.1925
rfingers 7.12502
rthumb -4.75102 -431.119
lclavicle -2.80783e-015 -1.15295e-014
lhumerus 15.3245 7.69101 2.01865
lradius 50.0213
lwrist 25.0384
lhand -16.0531 11.7386
lfingers 7.12502
lthumb 10.1489 41.4738
rfemur -20.2412 20.6641 14.6597
rtibia 52.291
rfoot 39.0119 4.12446
rtoes 35.4293
lfemur -30.2092 -26.2814 -4.21208
ltibia 57.9826
lfoot 48.4505 -16.3236
ltoes 37.42
1078
root -6.55047 17.751 27.5865 -179.243 172.902 176.626
lowerback 1.49591 -2.49336 -3.72764
upperback -1.75495 -3.3936 1.63407
thorax -2.3297 -1.61391 3.88197
lowerneck -10.4278 -3.2226 0.188016
upperneck 10.5413 -4.62383 1.97889
head 4.91816 -2.13047 0.247586
rclavicle -2.53575e-014 -9.93923e-016
rhumerus 6.71084 5.32502 3.07427
rradius 48.4702
rwrist -3.63072
rhand -37.5755 -51.1347
rfingers 7.12502
rthumb -10.6298 -440.846
lclavicle -2.53575e-014 -9.93923e-016
lhumerus 15.1706 8.92547 2.09636
lradius 50.8436
lwrist 24.1398
lhand -13.9717 10.9679
lfingers 7.12502
lthumb 12.1564 40.5947
rfemur -20.0121 19.9897 14.4106
rtibia 52.4787
rfoot 38.1575 4.28577
rtoes 35.3048
lfemur -29.4491 -25.7787 -4.79077
ltibia 57.9181
lfoot 47.3525 -15.8935
ltoes 37.1442
1079
root -6.56664 17.7408 27.5825 -179.231 173.152 176.895
lowerback 1.55198 -2.36614 -4.02421
upperback -1.7493 -3.23379 1.64325
thorax -2.35447 -1.52809 4.05678
lowerneck -10.3831 -3.27343 0.040596
upperneck 10.5193 -4.66964 1.98737
head 4.90784 -2.15887 0.271515
rclavicle 1.65364e-014 -4.17448e-015
rhumerus 7.20166 -0.491672 1.1809
rradius 48.4041
rwrist -3.19037
rhand -42.5066 -60.1607
rfingers 7.12502
rthumb -15.3832 -449.568
lclavicle 1.65364e-014 -4.17448e-015
lhumerus 14.9822 9.44956 2.17191
lradius 52.1805
lwrist 24.5583
lhand -12.4221 11.0596
lfingers 7.12502
lthumb 13.6502 40.592
rfemur -20.0058 19.3794 14.1097
rtibia 52.663
rfoot 37.4582 4.59861
rtoes 35.2652
lfemur -28.894 -25.5621 -5.13656
ltibia 57.8107
lfoot 46.2162 -15.6957
ltoes 36.8596
1080
root -6.57897 17.7292 27.5808 -179.089 173.301 177.044
lowerback 1.41132 -2.22685 -4.09164
upperback -1.78413 -3.04445 1.64829
thorax -2.32644 -1.43227 4.08961
lowerneck -10.2028 -3.36148 -0.145463
upperneck 10.478 -4.76347 2.03315
head 4.87136 -2.2113 0.312251
rclavicle -2.34193e-015 -1.64991e-014
rhumerus 7.43705 -5.22389 -0.383328
rradius 49.2485
rwrist -4.79402
rhand -46.5729 -67.2939
rfingers 7.12502
rthumb -19.2966 -623.644
lclavicle -2.34193e-015 -1.64991e-014
lhumerus 14.9388 9.43204 2.34445
lradius 53.6706
lwrist 26.0654
lhand -11.5967 11.9913
lfingers 7.12502
lthumb 14.4456 41.4685
rfemur -20.1655 18.8563 13.8385
rtibia 52.8124
rfoot 36.8958 5.06685
rtoes 35.176
lfemur -28.575 -25.5823 -5.23333
ltibia 57.6948
lfoot 45.0834 -15.7615
ltoes 36.4742
1081
root -6.5893 17.7162 27.5811 -178.854 173.314 177.064
lowerback 1.1149 -2.0981 -3.94175
upperback -1.85593 -2.85809 1.65003
thorax -2.25911 -1.3422 3.99154
lowerneck -9.91165 -3.4664 -0.360148
upperneck 10.4853 -4.88341 2.12507
head 4.83387 -2.27514 0.37155
rclavicle -3.73032e-014 8.94531e-015
rhumerus 7.45562 -8.76398 -1.55351
rradius 50.6133
rwrist -7.6244
rhand -49.6101 -72.0164
rfingers 7.12502
rthumb -22.2149 -619.24
lclavicle -3.73032e-014 8.94531e-015
lhumerus 15.0915 9.06171 2.66313
lradius 55.0407
lwrist 28.3017
lhand -11.5243 13.4087
lfingers 7.12502
lthumb 14.5154 42.8809
rfemur -20.4211 18.433 13.6493
rtibia 52.9136
rfoot 36.4154 5.67059
rtoes 34.8781
lfemur -28.4793 -25.7769 -5.09362
ltibia 57.5963
lfoot 44.0081 -15.9693
ltoes 36.1057
1082
root -6.59924 17.7023 27.5825 -178.568 173.179 176.992
lowerback 0.710067 -2.00544 -3.64907
upperback -1.94984 -2.71436 1.65033
thorax -2.15478 -1.27643 3.80963
lowerneck -9.6437 -3.56413 -0.530539
upperneck 10.6747 -5.00116 2.17333
head 4.85461 -2.33684 0.408387
rclavicle -3.57067e-014 1.33186e-014
rhumerus 7.38165 -11.2236 -2.40732
rradius 52.0622
rwrist -10.4421
rhand -51.3174 -73.8547
rfingers 7.12502
rthumb -23.8531 -617.606
lclavicle -3.57067e-014 1.33186e-014
lhumerus 15.3837 8.53203 3.15389
lradius 56.1357
lwrist 30.8186
lhand -12.0745 14.8474
lfingers 7.12502
lthumb 13.9852 44.357
rfemur -20.703 18.1082 13.536
rtibia 52.966
rfoot 35.9455 6.3691
rtoes 34.308
lfemur -28.568 -26.0595 -4.78695
ltibia 57.5305
lfoot 43.0162 -16.2284
ltoes 35.8273
1083
root -6.61032 17.6885 27.5837 -178.281 172.908 176.872
lowerback 0.271781 -1.97125 -3.29988
upperback -2.04951 -2.64922 1.6529
thorax -2.03163 -1.2511 3.59951
lowerneck -9.37656 -3.61476 -0.658458
upperneck 11.0176 -5.06287 2.19073
head 4.92042 -2.36984 0.431454
rclavicle -2.03692e-014 1.78906e-015
rhumerus 7.33591 -12.777 -3.07881
rradius 53.304
rwrist -12.2076
rhand -51.4653 -73.0626
rfingers 7.12502
rthumb -23.9949 -618.417
lclavicle -2.03692e-014 1.78906e-015
lhumerus 15.6946 7.99202 3.81563
lradius 56.9166
lwrist 33.1991
lhand -13.0379 15.8952
lfingers 7.12502
lthumb 13.0567 45.4665
rfemur -20.9442 17.8672 13.4841
rtibia 52.9771
rfoot 35.4408 7.13542
rtoes 33.4223
lfemur -28.7729 -26.35 -4.39325
ltibia 57.5001
lfoot 42.1297 -16.4635
ltoes 35.6843
1084
root -6.62352 17.6756 27.5831 -178.04 172.54 176.759
lowerback -0.121817 -2.00684 -2.98072
upperback -2.13823 -2.68169 1.66138
thorax -1.91231 -1.27392 3.41553
lowerneck -9.1643 -3.59995 -0.726382
upperneck 11.5177 -5.0414 2.14472
head 5.0397 -2.36176 0.428729
rclavicle 3.09607e-014 4.37326e-015
rhumerus 7.39705 -13.6579 -3.70865
rradius 54.2722
rwrist -12.5649
rhand -50.2348 -70.6204
rfingers 7.12502
rthumb -22.8145 -620.709
lclavicle 3.09607e-014 4.37326e-015
lhumerus 15.909 7.57031 4.66351
lradius 57.417
lwrist 35.109
lhand -14.2314 16.3488
lfingers 7.12502
lthumb 11.906 45.9902
rfemur -21.1009 17.6948 13.4585
rtibia 52.9548
rfoot 34.8951 7.87938
rtoes 32.3359
lfemur -29.012 -26.5631 -4.00802
ltibia 57.4938
lfoot 41.3592 -16.6545
ltoes 35.6566
